# xmcd
#
# Track frame offsets: 
#        150
#        10902
#        23499
#        35610
#        47510
#        59208
#        71101
#        83703
#        96104
#        108347
#        119462
#        130538
#        142739
#        154619
#        166687
#        179403
#        190240
#        201711
#        213496
#        225611
#
# Disc length: 3153 seconds
#
# Revision: 0
# Processed by: cddbd v1.5.2PL0 Copyright (c) Steve Scherf et al.
# Submitted via: ExactAudioCopy v1.0b1
#
DISCID=110c4f14
DTITLE=Charlie Burse And His Memphis Mudcats - Memphis Highway Stomp -
DTITLE=1939
DYEAR=2009
DGENRE=Blues
TTITLE0=Beale Street Holiday
TTITLE1=Baby, You Win
TTITLE2=Oil It Up And Go
TTITLE3=What’s The matter With The Well
TTITLE4=I’m In Buddy’s Wagon
TTITLE5=Good Potatoes On The Hill
TTITLE6=Weed Smoking Mama
TTITLE7=Dawn Of Day Blues
TTITLE8=Goldie May
TTITLE9=Scared To Death
TTITLE10=You Better Watch Out
TTITLE11=Too Much Beef
TTITLE12=Magic Spell Blues
TTITLE13=It Makes No Difference Now
TTITLE14=Radio Blues
TTITLE15=Hell’s Highway
TTITLE16=It’s Against The Rule
TTITLE17=Ain’t Gonna Be No Doggone Afterwhile
TTITLE18=Memphis Highway Stomp
TTITLE19=Brand New Day Blues
EXTD=
EXTT0=
EXTT1=
EXTT2=
EXTT3=
EXTT4=
EXTT5=
EXTT6=
EXTT7=
EXTT8=
EXTT9=
EXTT10=
EXTT11=
EXTT12=
EXTT13=
EXTT14=
EXTT15=
EXTT16=
EXTT17=
EXTT18=
EXTT19=
PLAYORDER=
